<?xml version="1.0" encoding="UTF-8" standalone="yes"?><svg xmlns="http://www.w3.org/2000/svg" xmlns:xlink="http://www.w3.org/1999/xlink" height="400px" style="zoom: 1;" cursor="default" width="400px" version="1.1" viewBox="0 0 400 400"><!-- Generator: Sketch 52.6 (67491) - http://www.bohemiancoding.com/sketch --><title>A4</title><desc>Created with Sketch.</desc><defs><path d="M352.1,353.209 L353.796,353.209 L352.104,353.149 C352.104,353.169 352.1,353.189 352.1,353.209" id="path-1"></path><linearGradient x1="0.752998433%" y1="-54.2685395%" x2="146.293018%" y2="197.652202%" id="linearGradient-3"><stop stop-color="#F224F2" offset="0%"></stop><stop stop-color="#6B7FF2" offset="91.4221939%"></stop><stop stop-color="#24AEF2" offset="100%"></stop></linearGradient><path d="M413.843065,92.4115271 C404.441526,92.4115271 396.791582,100.043343 396.791582,109.424922 L396.791582,351.833695 C396.791582,402.399695 355.593846,443.4998 304.950375,443.4998 C254.308455,443.4998 213.106843,402.399695 213.106843,351.878561 C213.106843,304.938176 249.342892,265.244381 295.94816,260.694377 L295.94816,226.842409 C230.197871,231.482918 179,286.130152 179,352.170962 C179,421.456028 235.502277,477.824405 304.950375,477.824405 C374.400025,477.824405 430.902302,421.456028 430.902302,352.170962 L430.894548,351.833695 L430.894548,109.424922 C430.894548,100.043343 423.244603,92.4115271 413.843065,92.4115271 Z" id="path-4"></path><path d="M355.594224,150.078921 L355.551781,354.616774 C354.618808,381.511104 332.502959,403.101293 305.450612,403.101293 C277.809466,403.101293 255.317032,380.557333 255.317032,352.846148 C255.317032,328.646819 272.897662,307.696346 296.491297,303.405537 L296.491297,268.852417 C254.19268,273.374514 221.371954,309.765557 221.371954,352.651216 C221.371954,399.123766 259.091365,436.929608 305.450612,436.929608 C351.75584,436.929608 389.472164,399.167084 389.526954,352.751776 L389.534671,150.078921 C389.534671,140.70056 381.920411,133.068845 372.563676,133.068845 C363.207712,133.068845 355.594224,140.70056 355.594224,150.078921" id="path-6"></path><path d="M314.760839,188.427972 L314.760839,351.666814 C314.760839,356.732303 310.735536,360.734179 305.792071,360.734179 C300.844723,360.734179 296.820196,356.732303 296.820196,351.813572 L296.820196,310.007448 C277.233545,314.184662 262.745714,331.793379 262.745714,351.906262 C262.745714,375.532855 282.079134,394.7536 305.838679,394.7536 C329.600554,394.7536 348.929313,375.532855 348.929313,351.906262 L348.929313,188.427972 C348.929313,179.06091 341.265545,171.439503 331.847018,171.439503 C322.424607,171.439503 314.760839,179.06091 314.760839,188.427972" id="path-8"></path></defs><rect x="0px" height="400px" id="rect1" y="0px" width="400px" fill="#ffffff" transform="" visibility="visible"></rect><g id="A4" stroke-width="1" stroke="none" fill="none" fill-rule="evenodd"><mask id="mask-2" fill="white"><use y="-84px" xlink:href="#path-1" x="-116px"></use></mask><g id="Clip-2"></g><path d="M236.100006,269.209015 L237.79599,269.209015 L236.104004,269.148987 C236.104004,269.169006 236.100006,269.188995 236.100006,269.209015 " id="Fill-1" mask="url(#mask-2)" fill="url(#linearGradient-3)"></path><mask id="mask-5" fill="white"><use y="-84px" xlink:href="#path-4" x="-116px"></use></mask><g id="Clip-5"></g><path d="M297.843079,8.41153 C288.441528,8.41153 280.791595,16.043343 280.791595,25.424919 L280.791595,267.83371 C280.791595,318.399689 239.593842,359.499786 188.950378,359.499786 C138.308472,359.499786 97.106842,318.399689 97.106842,267.878571 C97.106842,220.938171 133.342896,181.244385 179.948151,176.694366 L179.948151,142.842407 C114.197876,147.482925 63,202.130157 63,268.170959 C63,337.456024 119.502274,393.824402 188.950378,393.824402 C258.400024,393.824402 314.902313,337.456024 314.902313,268.170959 L314.894562,267.83371 L314.894562,25.424919 C314.894562,16.043343 307.244598,8.41153 297.843079,8.41153  Z " id="Fill-4" mask="url(#mask-5)" fill="url(#linearGradient-3)"></path><mask id="mask-7" fill="white"><use y="-84px" xlink:href="#path-6" x="-116px"></use></mask><g id="Clip-8"></g><path d="M239.594238,66.078918 L239.551788,270.61676 C238.618805,297.511108 216.50296,319.101288 189.450623,319.101288 C161.809479,319.101288 139.317017,296.557343 139.317017,268.846161 C139.317017,244.64682 156.897675,223.69635 180.491302,219.405548 L180.491302,184.852417 C138.192688,189.374512 105.371948,225.765564 105.371948,268.651215 C105.371948,315.123779 143.09137,352.929596 189.450623,352.929596 C235.755829,352.929596 273.472168,315.167084 273.526947,268.75177 L273.534668,66.078918 C273.534668,56.700562 265.92041,49.068848 256.56369,49.068848 C247.207703,49.068848 239.594238,56.700562 239.594238,66.078918 " id="Fill-7" mask="url(#mask-7)" fill="url(#linearGradient-3)"></path><mask id="mask-9" fill="white"><use y="-84px" xlink:href="#path-8" x="-116px"></use></mask><g id="Clip-11"></g><path d="M198.760834,104.427979 L198.760834,267.666809 C198.760834,272.7323 194.735535,276.734192 189.792084,276.734192 C184.844727,276.734192 180.82019,272.7323 180.82019,267.813568 L180.82019,226.007446 C161.233551,230.184662 146.745728,247.793365 146.745728,267.90625 C146.745728,291.532867 166.079132,310.753601 189.838684,310.753601 C213.600555,310.753601 232.929321,291.532867 232.929321,267.90625 L232.929321,104.427979 C232.929321,95.060913 225.265533,87.439499 215.847015,87.439499 C206.424622,87.439499 198.760834,95.060913 198.760834,104.427979 " id="Fill-10" mask="url(#mask-9)" fill="url(#linearGradient-3)"></path><path d="M302.457611,389.472504 C302.457611,392.569794 305.001587,395 308.187195,395 C311.408813,395 313.883209,392.569794 313.883209,389.472504 C313.883209,386.44278 311.408813,384.01178 308.187195,384.01178 C305.001587,384.01178 302.457611,386.44278 302.457611,389.472504  Z " id="Path" mask="url(#mask-9)"></path><path d="M303.883209,389.472504 C303.883209,387.075287 305.712799,385.110992 308.187195,385.110992 C310.662415,385.110992 312.460785,387.075287 312.460785,389.506287 C312.460785,391.903503 310.662415,393.834778 308.222412,393.834778 C305.712799,393.834778 303.883209,391.903503 303.883209,389.472504  Z " id="Path" mask="url(#mask-9)"></path><path d="M306.017609,386.875702 L306.017609,392.336426 L307.305603,392.336426 L307.305603,390.138794 L307.915985,390.138794 C308.628815,390.138794 308.967194,390.405151 309.068787,391.003845 C309.239197,391.637939 309.34079,392.136871 309.510406,392.336426 L310.900787,392.336426 C310.763214,392.136871 310.662415,391.803711 310.493591,390.971649 C310.324005,390.238556 310.019196,389.838654 309.475189,389.639069 L309.475189,389.572296 C310.153595,389.372711 310.628815,388.906799 310.628815,388.307281 C310.628815,387.774567 310.391998,387.341644 310.085602,387.108276 C309.679199,386.875702 309.20401,386.709137 308.153595,386.709137 C307.23999,386.709137 306.525604,386.775146 306.017609,386.875702  Z " id="Path" mask="url(#mask-9)"></path><path d="M307.341614,387.674774 C307.476013,387.640991 307.712006,387.608002 308.052002,387.608002 C308.865601,387.608002 309.239197,387.941132 309.239197,388.440857 C309.239197,389.006561 308.662415,389.239929 307.950409,389.239929 L307.341614,389.239929 L307.341614,387.674774  Z " id="Path" mask="url(#mask-9)"></path><path d="M302.457611,389.472504 C302.457611,392.569794 305.001587,395 308.187195,395 C311.408813,395 313.883209,392.569794 313.883209,389.472504 C313.883209,386.44278 311.408813,384.01178 308.187195,384.01178 C305.001587,384.01178 302.457611,386.44278 302.457611,389.472504  Z " id="Path" mask="url(#mask-9)" fill="url(#linearGradient-3)"></path><path d="M303.883209,389.472504 C303.883209,387.075287 305.712799,385.110992 308.187195,385.110992 C310.662415,385.110992 312.460785,387.075287 312.460785,389.506287 C312.460785,391.903503 310.662415,393.834778 308.222412,393.834778 C305.712799,393.834778 303.883209,391.903503 303.883209,389.472504  Z " id="Path" mask="url(#mask-9)" fill="url(#linearGradient-3)"></path><path d="M306.017609,386.875702 L306.017609,392.336426 L307.305603,392.336426 L307.305603,390.138794 L307.915985,390.138794 C308.628815,390.138794 308.967194,390.405151 309.068787,391.003845 C309.239197,391.637939 309.34079,392.136871 309.510406,392.336426 L310.900787,392.336426 C310.763214,392.136871 310.662415,391.803711 310.493591,390.971649 C310.324005,390.238556 310.019196,389.838654 309.475189,389.639069 L309.475189,389.572296 C310.153595,389.372711 310.628815,388.906799 310.628815,388.307281 C310.628815,387.774567 310.391998,387.341644 310.085602,387.108276 C309.679199,386.875702 309.20401,386.709137 308.153595,386.709137 C307.23999,386.709137 306.525604,386.775146 306.017609,386.875702  Z " id="Path" mask="url(#mask-9)" fill="url(#linearGradient-3)"></path><path d="M307.341614,387.674774 C307.476013,387.640991 307.712006,387.608002 308.052002,387.608002 C308.865601,387.608002 309.239197,387.941132 309.239197,388.440857 C309.239197,389.006561 308.662415,389.239929 307.950409,389.239929 L307.341614,389.239929 L307.341614,387.674774  Z " id="Path" mask="url(#mask-9)" fill="url(#linearGradient-3)"></path></g></svg>